<svg width="125" height="100" viewBox="0 0 125 100" fill="none" xmlns="http://www.w3.org/2000/svg">
<path d="M13.1825 3.06144C13.616 1.26541 15.2232 0 17.0708 0H120.206C123.237 0 125.167 3.23993 123.723 5.90513L115.056 21.9051C114.357 23.1959 113.007 24 111.539 24H70.649C68.7656 24 67.1374 25.3138 66.7394 27.1547L64.4691 37.6547C63.9303 40.1467 65.8292 42.5 68.3788 42.5H90.2694C92.8807 42.5 94.7918 44.9615 94.1446 47.4913L90.6911 60.9913C90.2383 62.7616 88.6432 64 86.8159 64H60.0446C58.2091 64 56.6092 65.2492 56.164 67.0299L48.6789 96.9701C48.2338 98.7508 46.6338 100 44.7984 100H4.00186C1.41298 100 -0.493923 97.578 0.113533 95.0614L1.6825 88.5614C2.11602 86.7654 3.72147 85.4901 5.55025 85.2271C10.7029 84.4859 20.7671 81.7321 24.4215 71.5C27.3159 63.3957 33.4215 45 34.9215 30C36.0005 19.2093 22.8481 15.9225 15.3815 14.9275C12.8466 14.5897 10.9902 12.1438 11.5902 9.65795L13.1825 3.06144Z" fill="#DD0000"/>
</svg>
